<svg xmlns="http://www.w3.org/2000/svg" width="1560" height="1020" viewBox="0 0 1560 1020" font-family="Instrument Sans, system-ui, sans-serif">
<style>
 .t{font-size:24px;font-weight:600;fill:#1a1714}
 .h{font-size:14px;font-weight:600;fill:#1a1714;letter-spacing:.04em;text-transform:uppercase}
 .s{font-size:13px;fill:#6b665e}
 .l{font-size:13px;fill:#4a463f}
 .n{font-size:13px;font-weight:700;fill:#fff}
 .k{font-size:14px;font-weight:600;fill:#1a1714}
 .km{font-size:13px;fill:#6b665e}
</style>
<rect width="100%" height="100%" fill="#f1efea"/>
<defs>
 <marker id="ax" viewBox="0 0 10 10" refX="9" refY="5" markerWidth="4.5" markerHeight="4.5" orient="auto"><path d="M0 0 L10 5 L0 10 z" fill="#4c5a3f"/></marker>
 <marker id="az" viewBox="0 0 10 10" refX="9" refY="5" markerWidth="4.5" markerHeight="4.5" orient="auto"><path d="M0 0 L10 5 L0 10 z" fill="#4a4660"/></marker>
</defs>
<text class="t" x="40" y="46">Where every scenario launches from</text>
<text class="s" x="40" y="68">One world, nine situations. Plan, north up, 1 unit = 1 metre. Every arrow is the flight the engine actually computes from that scenario's own numbers.</text>
<clipPath id="clip4092"><rect x="40" y="92" width="880" height="760" rx="12"/></clipPath>
<g clip-path="url(#clip4092)">
<rect x="40" y="92" width="880" height="760" fill="#e6e2db"/>
<rect x="-1862.5" y="-32.9" width="1093.2" height="989.0" fill="#cfdcc0" opacity="1"/>
<rect x="-300.8" y="-1074.0" width="1561.6" height="728.8" fill="#cfdcc0" opacity="1"/>
<rect x="1260.8" y="97.2" width="1561.6" height="1041.1" fill="#dfd6ce" opacity="1"/>
<rect x="-144.7" y="1164.3" width="1249.3" height="1145.2" fill="#dfd6ce" opacity="1"/>
<rect x="-1862.5" y="1112.3" width="1093.2" height="989.0" fill="#dfd6ce" opacity="1"/>
<rect x="1599.2" y="-1178.1" width="1223.3" height="1145.2" fill="#dfd6ce" opacity="1"/>
<rect x="-66.6" y="878.0" width="364.4" height="208.2" fill="#d6d2cb" opacity="1"/>
<rect x="688.2" y="878.0" width="351.4" height="169.2" fill="#d6d2cb" opacity="1"/>
<rect x="-691.2" y="97.2" width="286.3" height="780.8" fill="#d6d2cb" opacity="1"/>
<rect x="318.6" y="883.2" width="322.7" height="208.2" fill="#d6d2cb" opacity="1"/>
<rect x="-7328.2" y="92.0" width="15616.4" height="31.2" fill="#e4e0d9" opacity="1"/>
<rect x="-7328.2" y="60.8" width="15616.4" height="31.2" fill="#e4e0d9" opacity="1"/>
<rect x="-7328.2" y="42.5" width="15616.4" height="18.2" fill="#bcb9b4" opacity="1"/>
<rect x="-7328.2" y="36.3" width="15616.4" height="6.2" fill="#cfdcc0" opacity="1"/>
<rect x="-7328.2" y="18.1" width="15616.4" height="18.2" fill="#bcb9b4" opacity="1"/>
<rect x="-7328.2" y="2.5" width="15616.4" height="15.6" fill="#e4e0d9" opacity="1"/>
<rect x="-404.9" y="-7320.6" width="62.5" height="15616.4" fill="#e4e0d9" opacity="1"/>
<rect x="-394.5" y="-7320.6" width="41.6" height="15616.4" fill="#bcb9b4" opacity="1"/>
<rect x="-92.6" y="-215.1" width="1145.2" height="41.6" fill="#cac5be" opacity="1"/>
<rect x="323.8" y="-163.1" width="312.3" height="104.1" fill="#b9c7d1" opacity="1"/>
<rect x="50.5" y="123.2" width="858.9" height="728.8" fill="#dcd7cf" opacity="1"/>
<path d="M805.3 544.9 L802.7 578.7 L794.8 611.6 L781.8 643.0 L764.1 671.9 L742.1 697.6 L716.3 719.6 L687.4 737.4 L656.1 750.3 L623.1 758.2 L589.3 760.9 L370.7 760.9 L336.9 758.2 L303.9 750.3 L272.6 737.4 L243.7 719.6 L217.9 697.6 L195.9 671.9 L178.2 643.0 L165.2 611.6 L157.3 578.7 L154.7 544.9 L154.7 430.4 L157.3 396.6 L165.2 363.6 L178.2 332.3 L195.9 303.4 L217.9 277.6 L243.7 255.6 L272.6 237.9 L303.9 224.9 L336.9 217.0 L370.7 214.3 L589.3 214.3 L623.1 217.0 L656.1 224.9 L687.4 237.9 L716.3 255.6 L742.1 277.6 L764.1 303.4 L781.8 332.3 L794.8 363.6 L802.7 396.6 L805.3 430.4 Z" fill="#c7c2b9" stroke="#99938a" stroke-width="1.2"/>
<path d="M641.4 518.8 L640.4 531.1 L637.5 543.0 L632.9 554.3 L626.5 564.7 L618.5 574.1 L609.2 582.0 L598.7 588.4 L587.4 593.1 L575.5 596.0 L563.3 596.9 L396.7 596.9 L384.5 596.0 L372.6 593.1 L361.3 588.4 L350.8 582.0 L341.5 574.1 L333.5 564.7 L327.1 554.3 L322.5 543.0 L319.6 531.1 L318.6 518.8 L318.6 456.4 L319.6 444.2 L322.5 432.3 L327.1 420.9 L333.5 410.5 L341.5 401.2 L350.8 393.2 L361.3 386.8 L372.6 382.1 L384.5 379.3 L396.7 378.3 L563.3 378.3 L575.5 379.3 L587.4 382.1 L598.7 386.8 L609.2 393.2 L618.5 401.2 L626.5 410.5 L632.9 420.9 L637.5 432.3 L640.4 444.2 L641.4 456.4 Z" fill="#aea89e" stroke="#8e887e" stroke-width="1.2"/>
<rect x="327.7" y="386.1" width="304.5" height="203.0" fill="#9fb68c" opacity="1"/>
<rect x="343.4" y="399.1" width="273.3" height="177.0" fill="#8fab78" opacity="1"/>
<rect x="343.4" y="399.1" width="273.3" height="177.0" fill="none" stroke="#fff" stroke-width="1.3"/>
<line x1="480.0" y1="399.1" x2="480.0" y2="576.1" stroke="#fff" stroke-width="1.3"/>
<circle cx="480.0" cy="487.6" r="23.8" fill="none" stroke="#fff" stroke-width="1.3"/>
<rect x="343.4" y="435.1" width="42.9" height="104.9" fill="none" stroke="#fff" stroke-width="1.3"/>
<rect x="343.4" y="463.8" width="14.3" height="47.7" fill="none" stroke="#fff" stroke-width="1.3"/>
<rect x="338.7" y="478.1" width="4.7" height="19.1" fill="#fff" opacity="0.65"/>
<rect x="573.7" y="435.1" width="42.9" height="104.9" fill="none" stroke="#fff" stroke-width="1.3"/>
<rect x="602.3" y="463.8" width="14.3" height="47.7" fill="none" stroke="#fff" stroke-width="1.3"/>
<rect x="616.6" y="478.1" width="4.7" height="19.1" fill="#fff" opacity="0.65"/>
<path d="M636.2 544.9 L635.6 552.2 L633.9 559.4 L631.1 566.1 L627.2 572.4 L622.4 578.0 L616.9 582.8 L610.6 586.6 L603.8 589.4 L596.6 591.1 L589.3 591.7 L370.7 591.7 L363.4 591.1 L356.2 589.4 L349.4 586.6 L343.1 582.8 L337.6 578.0 L332.8 572.4 L328.9 566.1 L326.1 559.4 L324.4 552.2 L323.8 544.9 L323.8 430.4 L324.4 423.0 L326.1 415.9 L328.9 409.1 L332.8 402.8 L337.6 397.2 L343.1 392.5 L349.4 388.6 L356.2 385.8 L363.4 384.1 L370.7 383.5 L589.3 383.5 L596.6 384.1 L603.8 385.8 L610.6 388.6 L616.9 392.5 L622.4 397.2 L627.2 402.8 L631.1 409.1 L633.9 415.9 L635.6 423.0 L636.2 430.4 Z" fill="none" stroke="#6f6a62" stroke-dasharray="7 5" stroke-width="1.4"/>
</g>
<rect x="40" y="92" width="880" height="760" fill="none" stroke="#c9c4bc" rx="12"/>
<text class="h" x="40" y="82">1 · The stadium</text>
<clipPath id="clip94892"><rect x="948" y="92" width="572" height="420" rx="12"/></clipPath>
<g clip-path="url(#clip94892)">
<rect x="948" y="92" width="572" height="420" fill="#e6e2db"/>
<rect x="985.3" y="263.3" width="116.1" height="105.0" fill="#cfdcc0" opacity="1"/>
<rect x="1151.1" y="152.8" width="165.8" height="77.4" fill="#cfdcc0" opacity="1"/>
<rect x="1316.9" y="277.1" width="165.8" height="110.5" fill="#dfd6ce" opacity="1"/>
<rect x="1167.7" y="390.4" width="132.6" height="121.6" fill="#dfd6ce" opacity="1"/>
<rect x="985.3" y="384.9" width="116.1" height="105.0" fill="#dfd6ce" opacity="1"/>
<rect x="1352.8" y="141.7" width="129.9" height="121.6" fill="#dfd6ce" opacity="1"/>
<rect x="1176.0" y="360.0" width="38.7" height="22.1" fill="#d6d2cb" opacity="1"/>
<rect x="1256.1" y="360.0" width="37.3" height="18.0" fill="#d6d2cb" opacity="1"/>
<rect x="1109.7" y="277.1" width="30.4" height="82.9" fill="#d6d2cb" opacity="1"/>
<rect x="1216.9" y="360.6" width="34.3" height="22.1" fill="#d6d2cb" opacity="1"/>
<rect x="405.1" y="276.6" width="1657.9" height="3.3" fill="#e4e0d9" opacity="1"/>
<rect x="405.1" y="273.3" width="1657.9" height="3.3" fill="#e4e0d9" opacity="1"/>
<rect x="405.1" y="271.3" width="1657.9" height="1.9" fill="#bcb9b4" opacity="1"/>
<rect x="405.1" y="270.7" width="1657.9" height="0.7" fill="#cfdcc0" opacity="1"/>
<rect x="405.1" y="268.7" width="1657.9" height="1.9" fill="#bcb9b4" opacity="1"/>
<rect x="405.1" y="267.1" width="1657.9" height="1.7" fill="#e4e0d9" opacity="1"/>
<rect x="1140.1" y="-510.4" width="6.6" height="1657.9" fill="#e4e0d9" opacity="1"/>
<rect x="1141.2" y="-510.4" width="4.4" height="1657.9" fill="#bcb9b4" opacity="1"/>
<rect x="1173.2" y="244.0" width="121.6" height="4.4" fill="#cac5be" opacity="1"/>
<rect x="1217.4" y="249.5" width="33.2" height="11.1" fill="#b9c7d1" opacity="1"/>
<rect x="1188.4" y="279.9" width="91.2" height="77.4" fill="#dcd7cf" opacity="1"/>
<path d="M1268.5 324.7 L1268.3 328.2 L1267.4 331.7 L1266.0 335.1 L1264.2 338.1 L1261.8 340.9 L1259.1 343.2 L1256.0 345.1 L1252.7 346.5 L1249.2 347.3 L1245.6 347.6 L1222.4 347.6 L1218.8 347.3 L1215.3 346.5 L1212.0 345.1 L1208.9 343.2 L1206.2 340.9 L1203.8 338.1 L1202.0 335.1 L1200.6 331.7 L1199.7 328.2 L1199.5 324.7 L1199.5 312.5 L1199.7 308.9 L1200.6 305.4 L1202.0 302.1 L1203.8 299.0 L1206.2 296.3 L1208.9 293.9 L1212.0 292.1 L1215.3 290.7 L1218.8 289.8 L1222.4 289.6 L1245.6 289.6 L1249.2 289.8 L1252.7 290.7 L1256.0 292.1 L1259.1 293.9 L1261.8 296.3 L1264.2 299.0 L1266.0 302.1 L1267.4 305.4 L1268.3 308.9 L1268.5 312.5 Z" fill="#c7c2b9" stroke="#99938a" stroke-width="1.2"/>
<path d="M1251.1 321.9 L1251.0 323.2 L1250.7 324.5 L1250.2 325.7 L1249.5 326.8 L1248.7 327.8 L1247.7 328.6 L1246.6 329.3 L1245.4 329.8 L1244.1 330.1 L1242.8 330.2 L1225.2 330.2 L1223.9 330.1 L1222.6 329.8 L1221.4 329.3 L1220.3 328.6 L1219.3 327.8 L1218.5 326.8 L1217.8 325.7 L1217.3 324.5 L1217.0 323.2 L1216.9 321.9 L1216.9 315.3 L1217.0 314.0 L1217.3 312.7 L1217.8 311.5 L1218.5 310.4 L1219.3 309.4 L1220.3 308.6 L1221.4 307.9 L1222.6 307.4 L1223.9 307.1 L1225.2 307.0 L1242.8 307.0 L1244.1 307.1 L1245.4 307.4 L1246.6 307.9 L1247.7 308.6 L1248.7 309.4 L1249.5 310.4 L1250.2 311.5 L1250.7 312.7 L1251.0 314.0 L1251.1 315.3 Z" fill="#aea89e" stroke="#8e887e" stroke-width="1.2"/>
<rect x="1217.8" y="307.8" width="32.3" height="21.6" fill="#9fb68c" opacity="1"/>
<rect x="1219.5" y="309.2" width="29.0" height="18.8" fill="#8fab78" opacity="1"/>
</g>
<rect x="948" y="92" width="572" height="420" fill="none" stroke="#c9c4bc" rx="12"/>
<text class="h" x="948" y="82">2 · The district, out to 1.5 km</text>
<rect x="1187.3" y="276.6" width="93.4" height="80.7" fill="none" stroke="#1a1714" stroke-width="1.4" stroke-dasharray="5 4"/>
<text class="l" x="1234.0" y="372.3" text-anchor="middle">panel 1</text>
<text class="l" x="1274.3" y="255.0" text-anchor="middle">rail station, 210 m out</text>
<text class="l" x="1101.4" y="267.7" text-anchor="middle">main road</text>
<text class="l" x="1051.6" y="318.6" text-anchor="middle">park</text>
<text class="l" x="1195.3" y="388.2" text-anchor="middle">car parks</text>
<text class="l" x="1377.7" y="329.6" text-anchor="middle">terraces</text>
<text class="l" x="568.5" y="592.1" text-anchor="middle">pitch 105 × 68 m</text>
<text class="l" x="584.1" y="376.5" text-anchor="middle" fill="#6f6a62">roof opening 120 × 80 m</text>
<text class="l" x="480.0" y="204.3" text-anchor="middle">bowl 250 × 210 m · roof 48 m</text>
<text class="l" x="480.0" y="840.0" text-anchor="middle">podium plaza, +1.5 m</text>
<text class="l" x="232.7" y="326.2" text-anchor="middle">single steep tier, 34°</text>
<text class="l" x="727.3" y="326.2" text-anchor="middle">4 tiers</text>
<text class="l" x="480.0" y="649.0" text-anchor="middle">3 tiers + boxes (north and south)</text>
<circle cx="480.0" cy="487.6" r="4" fill="#ffffff" stroke="#1a1714" stroke-width="1.6"/>
<line x1="343.4" y1="460.3" x2="509.2" y2="460.3" stroke="#4c5a3f" stroke-width="2.2" opacity="0.8" marker-end="url(#ax)"/>
<circle cx="509.2" cy="460.3" r="3.2" fill="#4c5a3f"/>
<line x1="343.4" y1="496.7" x2="496.6" y2="496.7" stroke="#4c5a3f" stroke-width="2.2" opacity="0.8" marker-end="url(#ax)"/>
<circle cx="496.6" cy="496.7" r="3.2" fill="#4c5a3f"/>
<line x1="343.4" y1="514.9" x2="625.5" y2="514.9" stroke="#4c5a3f" stroke-width="2.2" opacity="0.8" marker-end="url(#ax)"/>
<circle cx="625.5" cy="514.9" r="3.2" fill="#4c5a3f"/>
<circle cx="343.4" cy="487.6" r="4" fill="#ffffff" stroke="#1a1714" stroke-width="1.6"/>
<circle cx="480.0" cy="380.9" r="4" fill="#ffffff" stroke="#1a1714" stroke-width="1.6"/>
<line x1="498.2" y1="284.6" x2="498.2" y2="402.1" stroke="#4a4660" stroke-width="2.2" opacity="0.8" marker-end="url(#az)"/>
<circle cx="498.2" cy="402.1" r="3.2" fill="#4a4660"/>
<line x1="516.4" y1="284.6" x2="516.4" y2="544.7" stroke="#4a4660" stroke-width="2.2" opacity="0.8" marker-end="url(#az)"/>
<circle cx="516.4" cy="544.7" r="3.2" fill="#4a4660"/>
<circle cx="480.0" cy="284.6" r="4" fill="#ffffff" stroke="#1a1714" stroke-width="1.6"/>
<line x1="386.3" y1="478.5" x2="332.2" y2="478.5" stroke="#4c5a3f" stroke-width="2.2" opacity="0.8" marker-end="url(#ax)"/>
<circle cx="332.2" cy="478.5" r="3.2" fill="#4c5a3f"/>
<circle cx="386.3" cy="487.6" r="4" fill="#ffffff" stroke="#1a1714" stroke-width="1.6"/>
<circle cx="480.0" cy="487.6" r="11.5" fill="#4a4660" stroke="#fff" stroke-width="1.8"/>
<text class="n" x="480.0" y="487.6" text-anchor="middle" dy="4.6">1</text>
<line x1="480.0" y1="487.6" x2="450.0" y2="487.6" stroke="#ffffff" stroke-width="3" opacity="0.85"/><line x1="480.0" y1="487.6" x2="450.0" y2="487.6" stroke="#4a463f" stroke-width="1.2"/>
<circle cx="450.0" cy="487.6" r="11.5" fill="#4a4660" stroke="#fff" stroke-width="1.8"/>
<text class="n" x="450.0" y="487.6" text-anchor="middle" dy="4.6">3</text>
<circle cx="343.4" cy="487.6" r="11.5" fill="#4c5a3f" stroke="#fff" stroke-width="1.8"/>
<text class="n" x="343.4" y="487.6" text-anchor="middle" dy="4.6">2</text>
<line x1="343.4" y1="487.6" x2="343.4" y2="457.6" stroke="#ffffff" stroke-width="3" opacity="0.85"/><line x1="343.4" y1="487.6" x2="343.4" y2="457.6" stroke="#4a463f" stroke-width="1.2"/>
<circle cx="343.4" cy="457.6" r="11.5" fill="#4c5a3f" stroke="#fff" stroke-width="1.8"/>
<text class="n" x="343.4" y="457.6" text-anchor="middle" dy="4.6">8</text>
<line x1="343.4" y1="487.6" x2="343.4" y2="517.6" stroke="#ffffff" stroke-width="3" opacity="0.85"/><line x1="343.4" y1="487.6" x2="343.4" y2="517.6" stroke="#4a463f" stroke-width="1.2"/>
<circle cx="343.4" cy="517.6" r="11.5" fill="#4c5a3f" stroke="#fff" stroke-width="1.8"/>
<text class="n" x="343.4" y="517.6" text-anchor="middle" dy="4.6">9</text>
<circle cx="480.0" cy="380.9" r="11.5" fill="#4a4660" stroke="#fff" stroke-width="1.8"/>
<text class="n" x="480.0" y="380.9" text-anchor="middle" dy="4.6">4</text>
<circle cx="480.0" cy="284.6" r="11.5" fill="#4a4660" stroke="#fff" stroke-width="1.8"/>
<text class="n" x="480.0" y="284.6" text-anchor="middle" dy="4.6">5</text>
<line x1="480.0" y1="284.6" x2="450.0" y2="284.6" stroke="#ffffff" stroke-width="3" opacity="0.85"/><line x1="480.0" y1="284.6" x2="450.0" y2="284.6" stroke="#4a463f" stroke-width="1.2"/>
<circle cx="450.0" cy="284.6" r="11.5" fill="#4a4660" stroke="#fff" stroke-width="1.8"/>
<text class="n" x="450.0" y="284.6" text-anchor="middle" dy="4.6">6</text>
<circle cx="386.3" cy="487.6" r="11.5" fill="#4c5a3f" stroke="#fff" stroke-width="1.8"/>
<text class="n" x="386.3" y="487.6" text-anchor="middle" dy="4.6">7</text>
<text class="h" x="948" y="548">3 · The nine</text>
<rect x="948" y="560" width="572" height="317" fill="#fff" rx="12" stroke="#e2ddd5"/>
<circle cx="972" cy="586" r="10" fill="#4a4660"/>
<text class="n" x="972" y="586" text-anchor="middle" dy="4.4">1</text>
<text class="k" x="992" y="583">Thrown straight up</text>
<text class="km" x="992" y="599">The centre spot</text>
<circle cx="972" cy="615" r="10" fill="#4c5a3f"/>
<text class="n" x="972" y="615" text-anchor="middle" dy="4.4">2</text>
<text class="k" x="992" y="612">Simple arc</text>
<text class="km" x="992" y="628">A goal kick from the west goal line</text>
<circle cx="972" cy="644" r="10" fill="#4a4660"/>
<text class="n" x="972" y="644" text-anchor="middle" dy="4.4">3</text>
<text class="k" x="992" y="641">Dropped</text>
<text class="km" x="992" y="657">A camera drone, 80 m above the centre circle</text>
<circle cx="972" cy="673" r="10" fill="#4a4660"/>
<text class="n" x="972" y="673" text-anchor="middle" dy="4.4">4</text>
<text class="k" x="992" y="670">Thrown straight down</text>
<text class="km" x="992" y="686">The roof edge, at the inner compression ring</text>
<circle cx="972" cy="702" r="10" fill="#4a4660"/>
<text class="n" x="972" y="702" text-anchor="middle" dy="4.4">5</text>
<text class="k" x="992" y="699">Off a platform</text>
<text class="km" x="992" y="715">Front row of the north upper tier, 25 m up</text>
<circle cx="972" cy="731" r="10" fill="#4a4660"/>
<text class="n" x="972" y="731" text-anchor="middle" dy="4.4">6</text>
<text class="k" x="992" y="728">Up and off a platform</text>
<text class="km" x="992" y="744">Front row of the north upper tier, 25 m up</text>
<circle cx="972" cy="760" r="10" fill="#4c5a3f"/>
<text class="n" x="972" y="760" text-anchor="middle" dy="4.4">7</text>
<text class="k" x="992" y="757">Throw at a target</text>
<text class="km" x="992" y="773">A shot from the edge of the penalty area</text>
<circle cx="972" cy="789" r="10" fill="#4c5a3f"/>
<text class="n" x="972" y="789" text-anchor="middle" dy="4.4">8</text>
<text class="k" x="992" y="786">Time above a line</text>
<text class="km" x="992" y="802">A clearance from the west goal line</text>
<circle cx="972" cy="818" r="10" fill="#4c5a3f"/>
<text class="n" x="972" y="818" text-anchor="middle" dy="4.4">9</text>
<text class="k" x="992" y="815">Two that collide</text>
<text class="km" x="992" y="831">A drone 73.5 m up, and a kick from the goal line below it</text>
<line x1="964" y1="845" x2="1504" y2="845" stroke="#e2ddd5"/>
<circle cx="972" cy="865" r="6" fill="#4c5a3f"/>
<text class="km" x="988" y="869">cut ALONG the pitch</text>
<circle cx="1162" cy="865" r="6" fill="#4a4660"/>
<text class="km" x="1178" y="869">cut ACROSS the pitch</text>
<g transform="translate(64, 826)">
 <rect x="-14" y="-22" width="350" height="34" fill="#ffffffcc" rx="7"/>
 <line x1="0" y1="0" x2="260.3" y2="0" stroke="#1a1714" stroke-width="2"/>
 <line x1="0" y1="-5" x2="0" y2="5" stroke="#1a1714" stroke-width="2"/>
 <line x1="130.1" y1="-4" x2="130.1" y2="4" stroke="#1a1714" stroke-width="2"/>
 <line x1="260.3" y1="-5" x2="260.3" y2="5" stroke="#1a1714" stroke-width="2"/>
 <text class="l" x="269.3" y="5">100 m</text></g>
<g transform="translate(972, 488)">
 <rect x="-14" y="-22" width="228" height="34" fill="#ffffffcc" rx="7"/>
 <line x1="0" y1="0" x2="138.2" y2="0" stroke="#1a1714" stroke-width="2"/>
 <line x1="0" y1="-5" x2="0" y2="5" stroke="#1a1714" stroke-width="2"/>
 <line x1="138.2" y1="-5" x2="138.2" y2="5" stroke="#1a1714" stroke-width="2"/>
 <text class="l" x="147.2" y="5">500 m</text></g>
<g transform="translate(884, 138)">
 <circle r="22" fill="#ffffffcc"/>
 <path d="M0 -15 L6 7 L0 2 L-6 7 Z" fill="#1a1714"/>
 <text class="l" x="0" y="18" text-anchor="middle">N</text></g>
</svg>
